<?xml version="1.0" standalone="no"?><svg xmlns="http://www.w3.org/2000/svg" viewBox="0 0 1440 320"><path fill="000102" fill-opacity="1" d="M0,192L40,170.7C80,149,160,107,240,117.3C320,128,400,192,480,192C560,192,640,128,720,133.3C800,139,880,213,960,202.7C1040,192,1120,96,1200,69.3C1280,43,1360,85,1400,106.7L1440,128L1440,0L1400,0C1360,0,1280,0,1200,0C1120,0,1040,0,960,0C880,0,800,0,720,0C640,0,560,0,480,0C400,0,320,0,240,0C160,0,80,0,40,0L0,0Z" data-darkreader-inline-fill="" style="--darkreader-inline-fill:#007acc;"></path></svg>